Mirza-Regular.ufo
<glyph name="ain-ar" format="1">
  <advance width="515"/>
  <unicode hex="0639"/>
  <outline>
    <contour>
      <point x="374" y="220"/>
      <point x="297" y="194"/>
      <point x="255" y="178" type="curve"/>
      <point x="215" y="190"/>
      <point x="173" y="214"/>
      <point x="155" y="258" type="curve"/>
      <point x="178" y="283"/>
      <point x="199" y="299"/>
      <point x="243" y="310" type="curve" smooth="yes"/>
      <point x="293" y="322"/>
      <point x="329" y="315"/>
      <point x="343" y="312" type="curve"/>
      <point x="358" y="334" type="line"/>
      <point x="321" y="364"/>
      <point x="273" y="376"/>
      <point x="243" y="376" type="curve" smooth="yes"/>
      <point x="205" y="376"/>
      <point x="164" y="344"/>
      <point x="142" y="312" type="curve" smooth="yes"/>
      <point x="119" y="279"/>
      <point x="110" y="244"/>
      <point x="116" y="214" type="curve" smooth="yes"/>
      <point x="123" y="180"/>
      <point x="158" y="149"/>
      <point x="187" y="134" type="curve"/>
      <point x="142" y="90"/>
      <point x="84" y="5"/>
      <point x="72" y="-98" type="curve" smooth="yes"/>
      <point x="64" y="-168"/>
      <point x="87" y="-226"/>
      <point x="126" y="-269" type="curve" smooth="yes"/>
      <point x="166" y="-313"/>
      <point x="222" y="-339"/>
      <point x="290" y="-339" type="curve" smooth="yes"/>
      <point x="336" y="-339"/>
      <point x="360" y="-327"/>
      <point x="385" y="-313" type="curve" smooth="yes"/>
      <point x="409" y="-300"/>
      <point x="435" y="-287"/>
      <point x="480" y="-285" type="curve"/>
      <point x="485" y="-270" type="line"/>
      <point x="449" y="-265"/>
      <point x="440" y="-265"/>
      <point x="403" y="-262" type="curve" smooth="yes"/>
      <point x="362" y="-259"/>
      <point x="328" y="-254"/>
      <point x="315" y="-252" type="curve" smooth="yes"/>
      <point x="251" y="-242"/>
      <point x="201" y="-218"/>
      <point x="169" y="-181" type="curve" smooth="yes"/>
      <point x="151" y="-160"/>
      <point x="130" y="-127"/>
      <point x="130" y="-60" type="curve" smooth="yes"/>
      <point x="130" y="-10"/>
      <point x="155" y="54"/>
      <point x="238" y="107" type="curve" smooth="yes"/>
      <point x="277" y="131"/>
      <point x="329" y="153"/>
      <point x="397" y="170" type="curve"/>
      <point x="403" y="190"/>
      <point x="409" y="210"/>
      <point x="415" y="233" type="curve"/>
    </contour>
    <contour>
      <point x="243" y="406" type="move" name="top"/>
    </contour>
    <contour>
      <point x="290" y="-369" type="move" name="bottom"/>
    </contour>
  </outline>
</glyph>
<glyph name="heh-ar" format="1">
  <advance width="361"/>
  <unicode hex="0647"/>
  <outline>
    <contour>
      <point x="301" y="161"/>
      <point x="295" y="188"/>
      <point x="285" y="211" type="curve" smooth="yes"/>
      <point x="273" y="238"/>
      <point x="256" y="261"/>
      <point x="234" y="279" type="curve" smooth="yes"/>
      <point x="207" y="302"/>
      <point x="174" y="318"/>
      <point x="138" y="327" type="curve"/>
      <point x="117" y="309"/>
      <point x="106" y="297"/>
      <point x="81" y="265" type="curve"/>
      <point x="118" y="249" type="line"/>
      <point x="94" y="223"/>
      <point x="70" y="171"/>
      <point x="70" y="113" type="curve" smooth="yes"/>
      <point x="70" y="88"/>
      <point x="75" y="55"/>
      <point x="94" y="29" type="curve" smooth="yes"/>
      <point x="111" y="6"/>
      <point x="141" y="-5"/>
      <point x="176" y="-5" type="curve" smooth="yes"/>
      <point x="230" y="-5"/>
      <point x="262" y="12"/>
      <point x="282" y="47" type="curve" smooth="yes"/>
      <point x="299" y="77"/>
      <point x="301" y="114"/>
      <point x="301" y="132" type="curve" smooth="yes"/>
    </contour>
    <contour>
      <point x="256" y="180"/>
      <point x="268" y="167"/>
      <point x="268" y="151" type="curve" smooth="yes"/>
      <point x="268" y="128"/>
      <point x="241" y="100"/>
      <point x="205" y="100" type="curve" smooth="yes"/>
      <point x="179" y="100"/>
      <point x="153" y="104"/>
      <point x="140" y="112" type="curve" smooth="yes"/>
      <point x="121" y="123"/>
      <point x="114" y="142"/>
      <point x="114" y="163" type="curve" smooth="yes"/>
      <point x="114" y="206"/>
      <point x="147" y="236"/>
      <point x="147" y="236" type="curve"/>
      <point x="172" y="228"/>
      <point x="206" y="211"/>
      <point x="221" y="202" type="curve" smooth="yes"/>
    </contour>
    <contour>
      <point x="138" y="357" type="move" name="top"/>
    </contour>
    <contour>
      <point x="175" y="-35" type="move" name="bottom"/>
    </contour>
  </outline>
</glyph>
<glyph name="noonghunnaabove-ar" format="1">
  <advance width="0"/>
  <unicode hex="0658"/>
  <outline>
    <contour>
      <point x="59" y="859"/>
      <point x="50" y="850"/>
      <point x="46" y="840" type="curve"/>
      <point x="47" y="838"/>
      <point x="75" y="802"/>
      <point x="75" y="783" type="curve" smooth="yes"/>
      <point x="75" y="773"/>
      <point x="67" y="763"/>
      <point x="53" y="755" type="curve" smooth="yes"/>
      <point x="38" y="748"/>
      <point x="24" y="744"/>
      <point x="3" y="744" type="curve" smooth="yes"/>
      <point x="-26" y="744"/>
      <point x="-46" y="751"/>
      <point x="-57" y="765" type="curve" smooth="yes"/>
      <point x="-67" y="776"/>
      <point x="-65" y="792"/>
      <point x="-62" y="813" type="curve"/>
      <point x="-69" y="815" type="line"/>
      <point x="-75" y="801"/>
      <point x="-79" y="786"/>
      <point x="-80" y="774" type="curve" smooth="yes"/>
      <point x="-80" y="762"/>
      <point x="-79" y="751"/>
      <point x="-75" y="741" type="curve" smooth="yes"/>
      <point x="-69" y="729"/>
      <point x="-60" y="719"/>
      <point x="-48" y="712" type="curve" smooth="yes"/>
      <point x="-35" y="706"/>
      <point x="-19" y="702"/>
      <point x="0" y="702" type="curve" smooth="yes"/>
      <point x="13" y="702"/>
      <point x="25" y="704"/>
      <point x="36" y="707" type="curve" smooth="yes"/>
      <point x="47" y="710"/>
      <point x="56" y="717"/>
      <point x="65" y="724" type="curve" smooth="yes"/>
      <point x="80" y="739"/>
      <point x="88" y="762"/>
      <point x="88" y="790" type="curve" smooth="yes"/>
      <point x="88" y="808"/>
      <point x="84" y="826"/>
      <point x="78" y="842" type="curve" smooth="yes"/>
      <point x="73" y="855"/>
      <point x="68" y="861"/>
      <point x="65" y="866" type="curve"/>
    </contour>
    <contour>
      <point x="4" y="859" type="move" name="top"/>
    </contour>
    <contour>
      <point x="4" y="670" type="move" name="_top"/>
    </contour>
  </outline>
</glyph>
<glyph name="dotvowelbelow-ar" format="1">
  <advance width="0"/>
  <unicode hex="065C"/>
  <outline>
    <contour>
      <point x="22" y="-278"/>
      <point x="39" y="-261"/>
      <point x="39" y="-240" type="curve" smooth="yes"/>
      <point x="39" y="-219"/>
      <point x="22" y="-202"/>
      <point x="0" y="-202" type="curve" smooth="yes"/>
      <point x="-21" y="-202"/>
      <point x="-38" y="-219"/>
      <point x="-38" y="-240" type="curve" smooth="yes"/>
      <point x="-38" y="-261"/>
      <point x="-21" y="-278"/>
      <point x="0" y="-278" type="curve" smooth="yes"/>
    </contour>
    <contour>
      <point x="1" y="-182" type="move" name="_bottom"/>
    </contour>
    <contour>
      <point x="1" y="-278" type="move" name="bottom"/>
    </contour>
  </outline>
</glyph>
<glyph name="decimalseparator-ar" format="1">
  <advance width="174"/>
  <unicode hex="066B"/>
  <outline>
    <contour>
      <point x="121" y="97" type="line"/>
      <point x="0" y="-200" type="line"/>
      <point x="53" y="-200" type="line"/>
      <point x="174" y="97" type="line"/>
    </contour>
  </outline>
</glyph>
<glyph name="uHamzaabove-ar" format="1">
  <advance width="348"/>
  <unicode hex="0677"/>
  <outline>
    <contour>
      <point x="160" y="419"/>
      <point x="153" y="418"/>
      <point x="146" y="416" type="curve" smooth="yes"/>
      <point x="128" y="414"/>
      <point x="111" y="414"/>
      <point x="95" y="418" type="curve" smooth="yes"/>
      <point x="73" y="424"/>
      <point x="65" y="429"/>
      <point x="65" y="449" type="curve" smooth="yes"/>
      <point x="82" y="459"/>
      <point x="96" y="466"/>
      <point x="117" y="466" type="curve" smooth="yes"/>
      <point x="130" y="466"/>
      <point x="138" y="464"/>
      <point x="144" y="462" type="curve"/>
      <point x="148" y="468" type="line"/>
      <point x="147" y="475"/>
      <point x="138" y="489"/>
      <point x="114" y="489" type="curve" smooth="yes"/>
      <point x="96" y="489"/>
      <point x="80" y="484"/>
      <point x="64" y="470" type="curve" smooth="yes"/>
      <point x="55" y="463"/>
      <point x="44" y="449"/>
      <point x="38" y="440" type="curve" smooth="yes"/>
      <point x="36" y="437"/>
      <point x="35" y="434"/>
      <point x="35" y="431" type="curve" smooth="yes"/>
      <point x="35" y="412"/>
      <point x="51" y="399"/>
      <point x="81" y="395" type="curve"/>
      <point x="52" y="384"/>
      <point x="37" y="374"/>
      <point x="21" y="359" type="curve" smooth="yes"/>
      <point x="20" y="357"/>
      <point x="18" y="354"/>
      <point x="18" y="352" type="curve" smooth="yes"/>
      <point x="18" y="349"/>
      <point x="20" y="345"/>
      <point x="23" y="345" type="curve"/>
      <point x="40" y="355"/>
      <point x="58" y="366"/>
      <point x="93" y="378" type="curve" smooth="yes"/>
      <point x="116" y="385"/>
      <point x="129" y="389"/>
      <point x="153" y="391" type="curve"/>
      <point x="158" y="399"/>
      <point x="163" y="410"/>
      <point x="167" y="420" type="curve"/>
    </contour>
    <contour>
      <point x="253" y="416" type="line" smooth="yes"/>
      <point x="275" y="452"/>
      <point x="274" y="485"/>
      <point x="256" y="495" type="curve" smooth="yes"/>
      <point x="237" y="505"/>
      <point x="219" y="495"/>
      <point x="200" y="472" type="curve" smooth="yes"/>
      <point x="189" y="459"/>
      <point x="186" y="447"/>
      <point x="188" y="436" type="curve" smooth="yes"/>
      <point x="191" y="422"/>
      <point x="203" y="412"/>
      <point x="227" y="403" type="curve"/>
      <point x="202" y="376"/>
      <point x="179" y="365"/>
      <point x="134" y="367" type="curve" smooth="yes"/>
      <point x="133" y="365"/>
      <point x="128" y="357"/>
      <point x="125" y="345" type="curve"/>
      <point x="158" y="341"/>
      <point x="188" y="348"/>
      <point x="212" y="365" type="curve" smooth="yes"/>
      <point x="226" y="376"/>
      <point x="233" y="383"/>
      <point x="243" y="398" type="curve"/>
      <point x="269" y="387" type="line" smooth="yes"/>
      <point x="269" y="396"/>
      <point x="268" y="402"/>
      <point x="266" y="409" type="curve" smooth="yes"/>
    </contour>
    <contour>
      <point x="222" y="433" type="line" smooth="yes"/>
      <point x="206" y="442"/>
      <point x="205" y="451"/>
      <point x="206" y="457" type="curve" smooth="yes"/>
      <point x="206" y="465"/>
      <point x="213" y="473"/>
      <point x="223" y="475" type="curve"/>
      <point x="231" y="478"/>
      <point x="241" y="475"/>
      <point x="246" y="468" type="curve"/>
      <point x="256" y="458"/>
      <point x="251" y="440"/>
      <point x="240" y="423" type="curve"/>
    </contour>
    <component base="waw-ar"/>
    <contour>
      <point x="151" y="518" type="move" name="top"/>
    </contour>
  </outline>
</glyph>
<glyph name="maddalong-ar" format="1">
  <advance width="0"/>
  <unicode hex="06E4"/>
  <outline>
    <contour>
      <point x="71" y="728"/>
      <point x="56" y="725"/>
      <point x="41" y="725" type="curve" smooth="yes"/>
      <point x="19" y="725"/>
      <point x="1" y="731"/>
      <point x="-16" y="736" type="curve" smooth="yes"/>
      <point x="-33" y="741"/>
      <point x="-43" y="743"/>
      <point x="-50" y="743" type="curve" smooth="yes"/>
      <point x="-64" y="743"/>
      <point x="-80" y="735"/>
      <point x="-89" y="698" type="curve"/>
      <point x="-88" y="697"/>
      <point x="-86" y="695"/>
      <point x="-84" y="694" type="curve"/>
      <point x="-76" y="706"/>
      <point x="-67" y="711"/>
      <point x="-54" y="711" type="curve" smooth="yes"/>
      <point x="-47" y="711"/>
      <point x="-39" y="710"/>
      <point x="-31" y="708" type="curve" smooth="yes"/>
      <point x="-20" y="705"/>
      <point x="-8" y="701"/>
      <point x="8" y="701" type="curve" smooth="yes"/>
      <point x="37" y="701"/>
      <point x="61" y="711"/>
      <point x="75" y="719" type="curve" smooth="yes"/>
      <point x="80" y="722"/>
      <point x="87" y="728"/>
      <point x="89" y="729" type="curve"/>
      <point x="88" y="731"/>
      <point x="87" y="732"/>
      <point x="86" y="733" type="curve"/>
    </contour>
    <contour>
      <point x="0" y="743" type="move" name="top"/>
    </contour>
    <contour>
      <point x="0" y="674" type="move" name="_top"/>
    </contour>
  </outline>
</glyph>
<glyph name="behVbelow-ar" format="1">
  <advance width="832"/>
  <unicode hex="08A0"/>
  <outline>
    <component base="dotlessbeh-ar"/>
    <component base="vbelow-ar" xOffset="410" yOffset="134"/>
    <contour>
      <point x="411" y="-259" type="move" name="bottom"/>
    </contour>
  </outline>
</glyph>
<glyph name="fathaCurly-ar" format="1">
  <advance width="0"/>
  <unicode hex="08E4"/>
  <outline>
    <contour>
      <point x="16" y="859" type="line"/>
      <point x="19" y="855"/>
      <point x="25" y="848"/>
      <point x="27" y="842" type="curve" smooth="yes"/>
      <point x="27" y="839"/>
      <point x="29" y="825"/>
      <point x="6" y="807" type="curve" smooth="yes"/>
      <point x="-5" y="799"/>
      <point x="-30" y="789"/>
      <point x="-41" y="773" type="curve" smooth="yes"/>
      <point x="-48" y="764"/>
      <point x="-51" y="753"/>
      <point x="-51" y="743" type="curve" smooth="yes"/>
      <point x="-51" y="727"/>
      <point x="-44" y="715"/>
      <point x="-22" y="699" type="curve"/>
      <point x="-18" y="707" type="line"/>
      <point x="-23" y="712"/>
      <point x="-27" y="716"/>
      <point x="-29" y="724" type="curve" smooth="yes"/>
      <point x="-34" y="739"/>
      <point x="-17" y="754"/>
      <point x="-6" y="760" type="curve" smooth="yes"/>
      <point x="2" y="765"/>
      <point x="29" y="778"/>
      <point x="38" y="791" type="curve" smooth="yes"/>
      <point x="45" y="800"/>
      <point x="50" y="813"/>
      <point x="49" y="826" type="curve" smooth="yes"/>
      <point x="49" y="841"/>
      <point x="42" y="850"/>
      <point x="19" y="867" type="curve"/>
    </contour>
    <contour>
      <point x="4" y="867" type="move" name="top"/>
    </contour>
    <contour>
      <point x="4" y="680" type="move" name="_top"/>
    </contour>
  </outline>
</glyph>
<glyph name="fourdotsbelow-ar" format="1">
  <advance width="0"/>
  <unicode hex="FBBB"/>
  <outline>
    <contour>
      <point x="-82" y="-177"/>
      <point x="-65" y="-193"/>
      <point x="-46" y="-215" type="curve"/>
      <point x="-27" y="-198"/>
      <point x="-13" y="-184"/>
      <point x="-2" y="-171" type="curve"/>
      <point x="13" y="-184"/>
      <point x="27" y="-198"/>
      <point x="41" y="-215" type="curve"/>
      <point x="65" y="-193"/>
      <point x="79" y="-179"/>
      <point x="93" y="-163" type="curve"/>
      <point x="83" y="-147"/>
      <point x="63" y="-128"/>
      <point x="44" y="-114" type="curve"/>
      <point x="67" y="-93"/>
      <point x="80" y="-80"/>
      <point x="93" y="-64" type="curve"/>
      <point x="81" y="-46"/>
      <point x="58" y="-23"/>
      <point x="37" y="-9" type="curve"/>
      <point x="26" y="-22"/>
      <point x="10" y="-38"/>
      <point x="-4" y="-52" type="curve"/>
      <point x="-17" y="-37"/>
      <point x="-34" y="-19"/>
      <point x="-50" y="-9" type="curve"/>
      <point x="-64" y="-24"/>
      <point x="-86" y="-46"/>
      <point x="-102" y="-62" type="curve"/>
      <point x="-84" y="-77"/>
      <point x="-68" y="-91"/>
      <point x="-51" y="-110" type="curve"/>
      <point x="-65" y="-125"/>
      <point x="-86" y="-146"/>
      <point x="-102" y="-161" type="curve"/>
    </contour>
    <contour>
      <point x="-25" y="-98"/>
      <point x="-12" y="-85"/>
      <point x="-2" y="-72" type="curve"/>
      <point x="11" y="-84"/>
      <point x="24" y="-96"/>
      <point x="36" y="-110" type="curve"/>
      <point x="25" y="-123"/>
      <point x="10" y="-138"/>
      <point x="-4" y="-151" type="curve"/>
      <point x="-15" y="-139"/>
      <point x="-29" y="-124"/>
      <point x="-42" y="-113" type="curve"/>
    </contour>
    <contour>
      <point x="-5" y="11" type="move" name="_bottom"/>
    </contour>
    <contour>
      <point x="-5" y="-215" type="move" name="bottom"/>
    </contour>
  </outline>
</glyph>
<glyph name="lam_hah-ar" format="1">
  <advance width="549"/>
  <unicode hex="FC40"/>
  <outline>
    <contour>
      <point x="505" y="246" type="line"/>
      <point x="452" y="246"/>
      <point x="357" y="255"/>
      <point x="290" y="271" type="curve"/>
      <point x="297" y="275"/>
      <point x="319" y="291"/>
      <point x="315" y="332" type="curve" smooth="yes"/>
      <point x="314" y="347"/>
      <point x="314" y="339"/>
      <point x="307" y="402" type="curve" smooth="yes"/>
      <point x="299" y="470"/>
      <point x="312" y="482"/>
      <point x="324" y="492" type="curve"/>
      <point x="299" y="518"/>
      <point x="280" y="547"/>
      <point x="272" y="568" type="curve"/>
      <point x="218" y="497" type="line"/>
      <point x="230" y="464"/>
      <point x="236" y="442"/>
      <point x="255" y="372" type="curve" smooth="yes"/>
      <point x="263" y="343"/>
      <point x="271" y="312"/>
      <point x="258" y="298" type="curve" smooth="yes"/>
      <point x="250" y="290"/>
      <point x="236" y="286"/>
      <point x="221" y="286" type="curve" smooth="yes"/>
      <point x="211" y="286"/>
      <point x="185" y="288"/>
      <point x="174" y="288" type="curve" smooth="yes"/>
      <point x="166" y="288"/>
      <point x="154" y="287"/>
      <point x="140" y="285" type="curve"/>
      <point x="129" y="268"/>
      <point x="122" y="249"/>
      <point x="118" y="228" type="curve"/>
      <point x="140" y="228"/>
      <point x="179" y="226"/>
      <point x="200" y="224" type="curve" smooth="yes"/>
      <point x="229" y="221"/>
      <point x="264" y="214"/>
      <point x="298" y="205" type="curve"/>
      <point x="241" y="188"/>
      <point x="191" y="157"/>
      <point x="153" y="117" type="curve" smooth="yes"/>
      <point x="101" y="62"/>
      <point x="70" y="-11"/>
      <point x="70" y="-88" type="curve" smooth="yes"/>
      <point x="70" y="-148"/>
      <point x="89" y="-200"/>
      <point x="126" y="-240" type="curve" smooth="yes"/>
      <point x="167" y="-284"/>
      <point x="228" y="-311"/>
      <point x="287" y="-311" type="curve" smooth="yes"/>
      <point x="328" y="-311"/>
      <point x="360" y="-298"/>
      <point x="385" y="-284" type="curve" smooth="yes"/>
      <point x="409" y="-271"/>
      <point x="435" y="-258"/>
      <point x="480" y="-256" type="curve"/>
      <point x="485" y="-241" type="line"/>
      <point x="449" y="-236"/>
      <point x="450" y="-237"/>
      <point x="403" y="-233" type="curve" smooth="yes"/>
      <point x="356" y="-229"/>
      <point x="333" y="-226"/>
      <point x="315" y="-223" type="curve" smooth="yes"/>
      <point x="249" y="-212"/>
      <point x="199" y="-187"/>
      <point x="169" y="-153" type="curve" smooth="yes"/>
      <point x="141" y="-121"/>
      <point x="128" y="-78"/>
      <point x="128" y="-37" type="curve" smooth="yes"/>
      <point x="128" y="48"/>
      <point x="182" y="109"/>
      <point x="251" y="142" type="curve" smooth="yes"/>
      <point x="301" y="166"/>
      <point x="363" y="178"/>
      <point x="426" y="178" type="curve" smooth="yes"/>
      <point x="440" y="178"/>
      <point x="483" y="178"/>
      <point x="494" y="177" type="curve"/>
      <point x="506" y="200"/>
      <point x="513" y="220"/>
      <point x="519" y="246" type="curve"/>
    </contour>
    <contour>
      <point x="315" y="-5" type="move" name="caret_1"/>
    </contour>
    <contour>
      <point x="436" y="-298" type="move" name="bottom_1"/>
    </contour>
    <contour>
      <point x="315" y="0" type="move" name="center"/>
    </contour>
    <contour>
      <point x="234" y="585" type="move" name="top_1"/>
    </contour>
    <contour>
      <point x="87" y="325" type="move" name="top_2"/>
    </contour>
    <contour>
      <point x="186" y="-341" type="move" name="bottom_2"/>
    </contour>
  </outline>
</glyph>
<glyph name="reh-ar.fina" format="1">
  <advance width="375"/>
  <unicode hex="FEAE"/>
  <outline>
    <contour>
      <point x="164" y="140"/>
      <point x="149" y="117"/>
      <point x="133" y="87" type="curve"/>
      <point x="172" y="51"/>
      <point x="202" y="14"/>
      <point x="202" y="-41" type="curve" smooth="yes"/>
      <point x="202" y="-79"/>
      <point x="188" y="-108"/>
      <point x="160" y="-135" type="curve" smooth="yes"/>
      <point x="111" y="-182"/>
      <point x="19" y="-228"/>
      <point x="-60" y="-271" type="curve"/>
      <point x="-51" y="-284" type="line"/>
      <point x="-30" y="-278"/>
      <point x="-12" y="-276"/>
      <point x="3" y="-276" type="curve" smooth="yes"/>
      <point x="25" y="-276"/>
      <point x="57" y="-280"/>
      <point x="79" y="-280" type="curve" smooth="yes"/>
      <point x="119" y="-280"/>
      <point x="140" y="-267"/>
      <point x="161" y="-247" type="curve" smooth="yes"/>
      <point x="182" y="-227"/>
      <point x="202" y="-199"/>
      <point x="218" y="-162" type="curve" smooth="yes"/>
      <point x="259" y="-68"/>
      <point x="244" y="19"/>
      <point x="244" y="19" type="curve" smooth="yes"/>
      <point x="244" y="19"/>
      <point x="267" y="0"/>
      <point x="309" y="0" type="curve" smooth="yes"/>
      <point x="375" y="0" type="line"/>
      <point x="375" y="98" type="line"/>
      <point x="296" y="98" type="line" smooth="yes"/>
      <point x="272" y="98"/>
      <point x="239" y="108"/>
      <point x="217" y="124" type="curve" smooth="yes"/>
      <point x="210" y="129"/>
      <point x="197" y="141"/>
      <point x="181" y="159" type="curve"/>
    </contour>
    <contour>
      <point x="151" y="198" type="move" name="top"/>
    </contour>
    <contour>
      <point x="36" y="-309" type="move" name="bottom"/>
    </contour>
  </outline>
</glyph>
<glyph name="seen-ar.init" format="1">
  <advance width="530"/>
  <unicode hex="FEB3"/>
  <outline>
    <contour>
      <point x="418" y="248"/>
      <point x="403" y="228"/>
      <point x="392" y="208" type="curve"/>
      <point x="436" y="147" type="line"/>
      <point x="421" y="106"/>
      <point x="405" y="94"/>
      <point x="368" y="94" type="curve" smooth="yes"/>
      <point x="340" y="94"/>
      <point x="322" y="101"/>
      <point x="309" y="116" type="curve" smooth="yes"/>
      <point x="296" y="130"/>
      <point x="293" y="149"/>
      <point x="293" y="167" type="curve" smooth="yes"/>
      <point x="293" y="175"/>
      <point x="294" y="183"/>
      <point x="295" y="190" type="curve"/>
      <point x="273" y="178" type="line"/>
      <point x="272" y="169"/>
      <point x="271" y="159"/>
      <point x="268" y="149" type="curve" smooth="yes"/>
      <point x="260" y="121"/>
      <point x="241" y="94"/>
      <point x="197" y="94" type="curve" smooth="yes"/>
      <point x="141" y="94"/>
      <point x="128" y="124"/>
      <point x="125" y="152" type="curve" smooth="yes"/>
      <point x="124" y="167"/>
      <point x="126" y="182"/>
      <point x="127" y="190" type="curve"/>
      <point x="105" y="178" type="line"/>
      <point x="101" y="161"/>
      <point x="101" y="148"/>
      <point x="90" y="131" type="curve" smooth="yes"/>
      <point x="75" y="109"/>
      <point x="53" y="98"/>
      <point x="25" y="98" type="curve" smooth="yes"/>
      <point x="-20" y="98" type="line" smooth="yes"/>
      <point x="-47" y="98"/>
      <point x="-70" y="75"/>
      <point x="-70" y="48" type="curve" smooth="yes"/>
      <point x="-70" y="24"/>
      <point x="-51" y="0"/>
      <point x="-20" y="0" type="curve" smooth="yes"/>
      <point x="18" y="0" type="line" smooth="yes"/>
      <point x="53" y="0"/>
      <point x="74" y="14"/>
      <point x="88" y="30" type="curve" smooth="yes"/>
      <point x="105" y="51"/>
      <point x="108" y="76"/>
      <point x="108" y="76" type="curve" smooth="yes"/>
      <point x="113" y="40"/>
      <point x="134" y="0"/>
      <point x="187" y="0" type="curve" smooth="yes"/>
      <point x="243" y="0"/>
      <point x="271" y="40"/>
      <point x="279" y="75" type="curve"/>
      <point x="281" y="47"/>
      <point x="303" y="8"/>
      <point x="366" y="8" type="curve" smooth="yes"/>
      <point x="401" y="8"/>
      <point x="424" y="25"/>
      <point x="440" y="47" type="curve" smooth="yes"/>
      <point x="466" y="84"/>
      <point x="470" y="134"/>
      <point x="470" y="139" type="curve" smooth="yes"/>
      <point x="470" y="208"/>
      <point x="444" y="248"/>
      <point x="432" y="262" type="curve"/>
    </contour>
    <contour>
      <point x="279" y="228" type="move" name="top"/>
    </contour>
    <contour>
      <point x="279" y="-24" type="move" name="bottom"/>
    </contour>
  </outline>
</glyph>
<glyph name="ain-ar.fina" format="1">
  <advance width="519"/>
  <unicode hex="FECA"/>
  <outline>
    <contour>
      <point x="390" y="98" type="line" smooth="yes"/>
      <point x="374" y="98"/>
      <point x="353" y="105"/>
      <point x="334" y="118" type="curve"/>
      <point x="371" y="145"/>
      <point x="400" y="170"/>
      <point x="400" y="202" type="curve" smooth="yes"/>
      <point x="400" y="247"/>
      <point x="342" y="263"/>
      <point x="287" y="263" type="curve" smooth="yes"/>
      <point x="242" y="263"/>
      <point x="202" y="242"/>
      <point x="192" y="237" type="curve"/>
      <point x="184" y="216"/>
      <point x="178" y="191"/>
      <point x="174" y="165" type="curve"/>
      <point x="200" y="160"/>
      <point x="221" y="147"/>
      <point x="238" y="131" type="curve"/>
      <point x="223" y="123"/>
      <point x="210" y="115"/>
      <point x="197" y="106" type="curve" smooth="yes"/>
      <point x="167" y="87"/>
      <point x="144" y="65"/>
      <point x="124" y="38" type="curve" smooth="yes"/>
      <point x="94" y="-3"/>
      <point x="74" y="-53"/>
      <point x="71" y="-112" type="curve" smooth="yes"/>
      <point x="68" y="-174"/>
      <point x="87" y="-228"/>
      <point x="121" y="-267" type="curve" smooth="yes"/>
      <point x="160" y="-310"/>
      <point x="218" y="-336"/>
      <point x="289" y="-336" type="curve" smooth="yes"/>
      <point x="335" y="-336"/>
      <point x="359" y="-325"/>
      <point x="384" y="-312" type="curve" smooth="yes"/>
      <point x="408" y="-300"/>
      <point x="434" y="-283"/>
      <point x="479" y="-281" type="curve"/>
      <point x="484" y="-265" type="line"/>
      <point x="448" y="-260"/>
      <point x="439" y="-260"/>
      <point x="402" y="-257" type="curve" smooth="yes"/>
      <point x="361" y="-255"/>
      <point x="327" y="-251"/>
      <point x="314" y="-249" type="curve" smooth="yes"/>
      <point x="248" y="-239"/>
      <point x="198" y="-220"/>
      <point x="166" y="-188" type="curve" smooth="yes"/>
      <point x="138" y="-159"/>
      <point x="124" y="-127"/>
      <point x="128" y="-76" type="curve" smooth="yes"/>
      <point x="131" y="-38"/>
      <point x="146" y="-5"/>
      <point x="169" y="23" type="curve" smooth="yes"/>
      <point x="194" y="53"/>
      <point x="229" y="77"/>
      <point x="270" y="94" type="curve"/>
      <point x="289" y="69"/>
      <point x="307" y="43"/>
      <point x="329" y="26" type="curve" smooth="yes"/>
      <point x="351" y="8"/>
      <point x="379" y="0"/>
      <point x="409" y="0" type="curve" smooth="yes"/>
      <point x="519" y="0" type="line"/>
      <point x="519" y="98" type="line"/>
    </contour>
    <contour>
      <point x="287" y="293" type="move" name="top"/>
    </contour>
    <contour>
      <point x="289" y="-366" type="move" name="bottom"/>
    </contour>
  </outline>
</glyph>
<glyph name="TahSmallTwoDotsabove-ar" format="1">
  <advance width="0"/>
  <outline>
    <contour>
      <point x="29" y="662"/>
      <point x="13" y="646"/>
      <point x="-1" y="632" type="curve"/>
      <point x="-14" y="647"/>
      <point x="-31" y="665"/>
      <point x="-47" y="675" type="curve"/>
      <point x="-61" y="660"/>
      <point x="-83" y="638"/>
      <point x="-99" y="622" type="curve"/>
      <point x="-79" y="606"/>
      <point x="-62" y="590"/>
      <point x="-43" y="568" type="curve"/>
      <point x="-24" y="585"/>
      <point x="-10" y="599"/>
      <point x="1" y="612" type="curve"/>
      <point x="16" y="599"/>
      <point x="30" y="585"/>
      <point x="44" y="568" type="curve"/>
      <point x="68" y="590"/>
      <point x="82" y="604"/>
      <point x="96" y="620" type="curve"/>
      <point x="84" y="638"/>
      <point x="61" y="661"/>
      <point x="40" y="675" type="curve"/>
    </contour>
    <contour>
      <point x="-53" y="844" type="line" smooth="yes"/>
      <point x="-49" y="836"/>
      <point x="-33" y="800"/>
      <point x="-29" y="745" type="curve" smooth="yes"/>
      <point x="-40" y="725" type="line" smooth="yes"/>
      <point x="-69" y="725" type="line" smooth="yes"/>
      <point x="-59" y="693" type="line" smooth="yes"/>
      <point x="-17" y="693" type="line"/>
      <point x="4" y="693"/>
      <point x="27" y="702"/>
      <point x="46" y="715" type="curve"/>
      <point x="64" y="730"/>
      <point x="75" y="748"/>
      <point x="75" y="767" type="curve"/>
      <point x="75" y="782"/>
      <point x="54" y="796"/>
      <point x="39" y="796" type="curve"/>
      <point x="26" y="796"/>
      <point x="4" y="788"/>
      <point x="-19" y="755" type="curve" smooth="yes"/>
      <point x="-18" y="776"/>
      <point x="-19" y="783"/>
      <point x="-26" y="813" type="curve" smooth="yes"/>
      <point x="-27" y="832"/>
      <point x="-23" y="835"/>
      <point x="-16" y="842" type="curve" smooth="yes"/>
      <point x="-25" y="851"/>
      <point x="-32" y="860"/>
      <point x="-37" y="868" type="curve" smooth="yes"/>
    </contour>
    <contour>
      <point x="49" y="735"/>
      <point x="28" y="725"/>
      <point x="4" y="725" type="curve"/>
      <point x="-22" y="725" type="line" smooth="yes"/>
      <point x="-12" y="747"/>
      <point x="2" y="770"/>
      <point x="25" y="771" type="curve" smooth="yes"/>
      <point x="46" y="771"/>
      <point x="54" y="758"/>
      <point x="59" y="748" type="curve" smooth="yes"/>
    </contour>
    <contour>
      <point x="3" y="868" type="move" name="top"/>
    </contour>
    <contour>
      <point x="5" y="548" type="move" name="_top"/>
    </contour>
  </outline>
</glyph>
<glyph name="dotcenter-ar" format="1">
  <advance width="0"/>
  <outline>
    <contour>
      <point x="-14" y="192"/>
      <point x="-35" y="170"/>
      <point x="-51" y="155" type="curve"/>
      <point x="-31" y="139"/>
      <point x="-14" y="122"/>
      <point x="4" y="101" type="curve"/>
      <point x="27" y="122"/>
      <point x="42" y="137"/>
      <point x="56" y="153" type="curve"/>
      <point x="44" y="171"/>
      <point x="21" y="193"/>
      <point x="0" y="208" type="curve"/>
    </contour>
    <contour>
      <point x="4" y="157" type="move" name="_center"/>
    </contour>
  </outline>
</glyph>
<glyph name="gaf-ar.001" format="1">
  <advance width="864"/>
  <outline>
    <contour>
      <point x="358" y="468"/>
      <point x="307" y="425"/>
      <point x="280" y="394" type="curve" smooth="yes"/>
      <point x="248" y="357"/>
      <point x="229" y="316"/>
      <point x="229" y="284" type="curve" smooth="yes"/>
      <point x="229" y="265"/>
      <point x="236" y="250"/>
      <point x="249" y="237" type="curve" smooth="yes"/>
      <point x="264" y="222"/>
      <point x="289" y="211"/>
      <point x="321" y="205" type="curve" smooth="yes"/>
      <point x="343" y="201"/>
      <point x="363" y="200"/>
      <point x="374" y="200" type="curve" smooth="yes"/>
      <point x="406" y="200"/>
      <point x="571" y="206"/>
      <point x="630" y="206" type="curve" smooth="yes"/>
      <point x="682" y="206"/>
      <point x="718" y="183"/>
      <point x="739" y="163" type="curve" smooth="yes"/>
      <point x="756" y="147"/>
      <point x="760" y="133"/>
      <point x="767" y="106" type="curve" smooth="yes"/>
      <point x="767" y="106"/>
      <point x="686" y="103"/>
      <point x="649" y="102" type="curve" smooth="yes"/>
      <point x="613" y="100"/>
      <point x="576" y="100"/>
      <point x="539" y="100" type="curve" smooth="yes"/>
      <point x="466" y="100"/>
      <point x="415" y="97"/>
      <point x="376" y="97" type="curve" smooth="yes"/>
      <point x="314" y="97"/>
      <point x="279" y="99"/>
      <point x="229" y="106" type="curve" smooth="yes"/>
      <point x="174" y="114"/>
      <point x="133" y="133"/>
      <point x="113" y="164" type="curve" smooth="yes"/>
      <point x="103" y="180"/>
      <point x="96" y="200"/>
      <point x="92" y="224" type="curve"/>
      <point x="73" y="231" type="line"/>
      <point x="68" y="188"/>
      <point x="69" y="151"/>
      <point x="77" y="120" type="curve" smooth="yes"/>
      <point x="94" y="59"/>
      <point x="142" y="22"/>
      <point x="232" y="7" type="curve" smooth="yes"/>
      <point x="268" y="1"/>
      <point x="299" y="-2"/>
      <point x="397" y="-2" type="curve" smooth="yes"/>
      <point x="440" y="-2"/>
      <point x="588" y="3"/>
      <point x="692" y="7" type="curve" smooth="yes"/>
      <point x="729" y="9"/>
      <point x="759" y="25"/>
      <point x="781" y="56" type="curve" smooth="yes"/>
      <point x="796" y="77"/>
      <point x="803" y="98"/>
      <point x="804" y="102" type="curve"/>
      <point x="803" y="133"/>
      <point x="795" y="176"/>
      <point x="768" y="213" type="curve" smooth="yes"/>
      <point x="733" y="258"/>
      <point x="677" y="281"/>
      <point x="599" y="281" type="curve" smooth="yes"/>
      <point x="561" y="281"/>
      <point x="416" y="276"/>
      <point x="384" y="276" type="curve" smooth="yes"/>
      <point x="364" y="276"/>
      <point x="343" y="278"/>
      <point x="325" y="283" type="curve" smooth="yes"/>
      <point x="293" y="289"/>
      <point x="271" y="306"/>
      <point x="268" y="329" type="curve"/>
      <point x="305" y="367"/>
      <point x="370" y="399"/>
      <point x="426" y="416" type="curve"/>
      <point x="434" y="444"/>
      <point x="440" y="471"/>
      <point x="443" y="500" type="curve"/>
    </contour>
    <contour>
      <point x="439" y="526"/>
      <point x="440" y="537"/>
      <point x="443" y="549" type="curve"/>
      <point x="393" y="533"/>
      <point x="350" y="513"/>
      <point x="315" y="487" type="curve" smooth="yes"/>
      <point x="283" y="463"/>
      <point x="259" y="433"/>
      <point x="245" y="396" type="curve"/>
      <point x="252" y="390" type="line"/>
      <point x="274" y="422"/>
      <point x="296" y="442"/>
      <point x="321" y="460" type="curve" smooth="yes"/>
      <point x="357" y="485"/>
      <point x="395" y="501"/>
      <point x="434" y="516" type="curve"/>
    </contour>
    <contour>
      <point x="308" y="500" type="move" name="top"/>
    </contour>
    <contour>
      <point x="439" y="-25" type="move" name="bottom"/>
    </contour>
  </outline>
</glyph>
<glyph name="seen_meem_alefMaksura-ar" format="1">
  <advance width="1227"/>
  <outline>
    <contour>
      <point x="1115" y="366"/>
      <point x="1100" y="346"/>
      <point x="1089" y="326" type="curve"/>
      <point x="1133" y="265" type="line"/>
      <point x="1116" y="221"/>
      <point x="1101" y="212"/>
      <point x="1067" y="212" type="curve" smooth="yes"/>
      <point x="1044" y="212"/>
      <point x="1022" y="216"/>
      <point x="1006" y="234" type="curve" smooth="yes"/>
      <point x="993" y="248"/>
      <point x="990" y="267"/>
      <point x="990" y="284" type="curve" smooth="yes"/>
      <point x="990" y="294"/>
      <point x="991" y="301"/>
      <point x="992" y="308" type="curve"/>
      <point x="970" y="296" type="line"/>
      <point x="969" y="287"/>
      <point x="968" y="278"/>
      <point x="965" y="267" type="curve" smooth="yes"/>
      <point x="959" y="245"/>
      <point x="943" y="212"/>
      <point x="891" y="212" type="curve" smooth="yes"/>
      <point x="855" y="212"/>
      <point x="834" y="228"/>
      <point x="816" y="257" type="curve" smooth="yes"/>
      <point x="806" y="272"/>
      <point x="799" y="291"/>
      <point x="764" y="291" type="curve" smooth="yes"/>
      <point x="742" y="291"/>
      <point x="725" y="283"/>
      <point x="706" y="270" type="curve" smooth="yes"/>
      <point x="690" y="259"/>
      <point x="676" y="247"/>
      <point x="660" y="225" type="curve" smooth="yes"/>
      <point x="640" y="198"/>
      <point x="630" y="170"/>
      <point x="627" y="151" type="curve" smooth="yes"/>
      <point x="624" y="135"/>
      <point x="624" y="118"/>
      <point x="627" y="100" type="curve"/>
      <point x="519" y="113"/>
      <point x="465" y="85"/>
      <point x="450" y="74" type="curve"/>
      <point x="444" y="69"/>
      <point x="426" y="42"/>
      <point x="421" y="-2" type="curve"/>
      <point x="438" y="-5"/>
      <point x="464" y="-11"/>
      <point x="487" y="-19" type="curve" smooth="yes"/>
      <point x="524" y="-33"/>
      <point x="543" y="-50"/>
      <point x="543" y="-71" type="curve" smooth="yes"/>
      <point x="543" y="-95"/>
      <point x="495" y="-119"/>
      <point x="464" y="-132" type="curve"/>
      <point x="432" y="-147"/>
      <point x="367" y="-168"/>
      <point x="292" y="-168" type="curve" smooth="yes"/>
      <point x="217" y="-168"/>
      <point x="163" y="-152"/>
      <point x="132" y="-114" type="curve" smooth="yes"/>
      <point x="105" y="-81"/>
      <point x="109" y="-29"/>
      <point x="119" y="29" type="curve"/>
      <point x="100" y="36" type="line"/>
      <point x="85" y="-1"/>
      <point x="74" y="-50"/>
      <point x="71" y="-87" type="curve" smooth="yes"/>
      <point x="68" y="-120"/>
      <point x="72" y="-149"/>
      <point x="83" y="-175" type="curve" smooth="yes"/>
      <point x="97" y="-210"/>
      <point x="123" y="-237"/>
      <point x="159" y="-255" type="curve" smooth="yes"/>
      <point x="192" y="-272"/>
      <point x="234" y="-281"/>
      <point x="283" y="-281" type="curve" smooth="yes"/>
      <point x="342" y="-281"/>
      <point x="404" y="-266"/>
      <point x="457" y="-238" type="curve" smooth="yes"/>
      <point x="508" y="-211"/>
      <point x="547" y="-175"/>
      <point x="567" y="-137" type="curve" smooth="yes"/>
      <point x="581" y="-110"/>
      <point x="589" y="-83"/>
      <point x="589" y="-59" type="curve" smooth="yes"/>
      <point x="589" y="-18"/>
      <point x="563" y="6"/>
      <point x="534" y="21" type="curve"/>
      <point x="568" y="22"/>
      <point x="673" y="18"/>
      <point x="741" y="-14" type="curve"/>
      <point x="753" y="15"/>
      <point x="762" y="65"/>
      <point x="760" y="97" type="curve"/>
      <point x="738" y="103"/>
      <point x="674" y="112"/>
      <point x="674" y="152" type="curve" smooth="yes"/>
      <point x="674" y="179"/>
      <point x="694" y="221"/>
      <point x="757" y="221" type="curve" smooth="yes"/>
      <point x="794" y="221"/>
      <point x="805" y="203"/>
      <point x="817" y="180" type="curve" smooth="yes"/>
      <point x="835" y="147"/>
      <point x="854" y="120"/>
      <point x="895" y="120" type="curve" smooth="yes"/>
      <point x="944" y="120"/>
      <point x="968" y="159"/>
      <point x="976" y="193" type="curve"/>
      <point x="977" y="166"/>
      <point x="1002" y="126"/>
      <point x="1060" y="126" type="curve" smooth="yes"/>
      <point x="1096" y="126"/>
      <point x="1121" y="142"/>
      <point x="1138" y="165" type="curve" smooth="yes"/>
      <point x="1164" y="201"/>
      <point x="1167" y="249"/>
      <point x="1167" y="266" type="curve" smooth="yes"/>
      <point x="1167" y="318"/>
      <point x="1141" y="368"/>
      <point x="1129" y="380" type="curve"/>
    </contour>
    <contour>
      <point x="979" y="83" type="move" name="bottom_1"/>
    </contour>
    <contour>
      <point x="724" y="321" type="move" name="top_2"/>
    </contour>
    <contour>
      <point x="818" y="0" type="move" name="caret_2"/>
    </contour>
    <contour>
      <point x="409" y="0" type="move" name="caret_1"/>
    </contour>
    <contour>
      <point x="303" y="-311" type="move" name="bottom_3"/>
    </contour>
    <contour>
      <point x="970" y="336" type="move" name="top_1"/>
    </contour>
    <contour>
      <point x="734" y="-51" type="move" name="bottom_2"/>
    </contour>
    <contour>
      <point x="267" y="18" type="move" name="top_3"/>
    </contour>
  </outline>
</glyph>
<glyph name="threedotsdowncenter-ar" format="1">
  <advance width="0"/>
  <outline>
    <contour>
      <point x="81" y="375"/>
      <point x="58" y="398"/>
      <point x="37" y="412" type="curve"/>
      <point x="26" y="401"/>
      <point x="10" y="383"/>
      <point x="-4" y="370" type="curve"/>
      <point x="-17" y="386"/>
      <point x="-34" y="402"/>
      <point x="-50" y="412" type="curve"/>
      <point x="-64" y="397"/>
      <point x="-86" y="375"/>
      <point x="-102" y="360" type="curve"/>
      <point x="-82" y="344"/>
      <point x="-65" y="327"/>
      <point x="-46" y="305" type="curve"/>
      <point x="-27" y="324"/>
      <point x="-13" y="336"/>
      <point x="-2" y="349" type="curve"/>
      <point x="13" y="336"/>
      <point x="27" y="322"/>
      <point x="41" y="305" type="curve"/>
      <point x="65" y="327"/>
      <point x="79" y="342"/>
      <point x="93" y="357" type="curve"/>
    </contour>
    <contour>
      <point x="42" y="268"/>
      <point x="19" y="291"/>
      <point x="-2" y="305" type="curve"/>
      <point x="-15" y="290"/>
      <point x="-37" y="268"/>
      <point x="-53" y="252" type="curve"/>
      <point x="-34" y="236"/>
      <point x="-17" y="220"/>
      <point x="2" y="198" type="curve"/>
      <point x="26" y="220"/>
      <point x="40" y="234"/>
      <point x="54" y="250" type="curve"/>
    </contour>
    <contour>
      <point x="-5" y="325" type="move" name="_center"/>
    </contour>
  </outline>
</glyph>
<glyph name="two-ar.below" format="1">
  <advance width="0"/>
  <outline>
    <contour>
      <point x="58" y="-207" type="line"/>
      <point x="53" y="-231"/>
      <point x="32" y="-240"/>
      <point x="6" y="-240" type="curve" smooth="yes"/>
      <point x="-8" y="-240"/>
      <point x="-19" y="-236"/>
      <point x="-29" y="-229" type="curve" smooth="yes"/>
      <point x="-37" y="-223"/>
      <point x="-43" y="-214"/>
      <point x="-49" y="-203" type="curve"/>
      <point x="-57" y="-213"/>
      <point x="-64" y="-224"/>
      <point x="-70" y="-236" type="curve"/>
      <point x="-56" y="-259"/>
      <point x="-45" y="-288"/>
      <point x="-38" y="-321" type="curve" smooth="yes"/>
      <point x="-31" y="-358"/>
      <point x="-28" y="-394"/>
      <point x="-31" y="-436" type="curve"/>
      <point x="-19" y="-436" type="line"/>
      <point x="-13" y="-405"/>
      <point x="-8" y="-377"/>
      <point x="-8" y="-348" type="curve" smooth="yes"/>
      <point x="-7" y="-328"/>
      <point x="-10" y="-298"/>
      <point x="-15" y="-280" type="curve"/>
      <point x="2" y="-282"/>
      <point x="19" y="-283"/>
      <point x="37" y="-270" type="curve" smooth="yes"/>
      <point x="53" y="-259"/>
      <point x="66" y="-239"/>
      <point x="67" y="-201" type="curve"/>
    </contour>
    <contour>
      <point x="-4" y="-180" type="move" name="_bottom"/>
    </contour>
    <contour>
      <point x="-3" y="-434" type="move" name="bottom"/>
    </contour>
  </outline>
</glyph>
